<?xml version="1.0" encoding="UTF-8" standalone="no"?><!DOCTYPE svg PUBLIC "-//W3C//DTD SVG 1.1//EN" "http://www.w3.org/Graphics/SVG/1.1/DTD/svg11.dtd"><svg width="100%" height="100%" viewBox="0 0 200 200" version="1.1" xmlns="http://www.w3.org/2000/svg" xmlns:xlink="http://www.w3.org/1999/xlink" xml:space="preserve" xmlns:serif="http://www.serif.com/" style="fill-rule:evenodd;clip-rule:evenodd;stroke-linejoin:round;stroke-miterlimit:2;"><circle id="b" cx="100" cy="100" r="98.698" style="fill:#fff;"/><g><circle id="b1" serif:id="b" cx="100" cy="100" r="90.933"/><clipPath id="_clip1"><path d="M16.743,63.434c20.181,-45.951 73.872,-66.872 119.823,-46.691c45.951,20.181 66.872,73.872 46.691,119.823c-20.181,45.951 -73.872,66.872 -119.823,46.691c-45.951,-20.181 -66.872,-73.872 -46.691,-119.823Z"/></clipPath><g clip-path="url(#_clip1)"><path d="M53.309,-19.823l-73.132,166.514l166.514,73.132l73.132,-166.514l-166.514,-73.132Z" style="fill:url(#_Linear2);"/></g><clipPath id="_clip3"><circle cx="100" cy="100" r="90.933"/></clipPath><g clip-path="url(#_clip3)"><path d="M136.941,190.933l-73.882,-0l-8.525,-119.35l90.932,0l-8.525,119.35Z" style="fill:url(#_Linear4);fill-rule:nonzero;"/></g><clipPath id="_clip5"><circle cx="100" cy="100" r="90.933"/></clipPath><g clip-path="url(#_clip5)"><path d="M88.633,190.933l-25.574,-0l-8.525,-119.35l31.258,0l2.841,119.35Z" style="fill:#fff;fill-opacity:0.5;fill-rule:nonzero;"/></g><clipPath id="_clip6"><circle cx="100" cy="100" r="90.933"/></clipPath><g clip-path="url(#_clip6)"><rect x="54.534" y="48.85" width="90.933" height="22.733" style="fill:#fff;"/></g></g><g transform="matrix(3.125,0,0,3.125,29.7365,72.7812)"><g transform="matrix(16,0,0,16,12.6199,25.5069)"><path d="M0.156,0.412c-0.042,0 -0.074,-0.006 -0.094,-0.018c-0.03,-0.019 -0.045,-0.044 -0.045,-0.077c0,-0.003 0.002,-0.018 0.006,-0.046c0.026,-0.141 0.039,-0.288 0.039,-0.441c-0,-0.088 -0.004,-0.16 -0.012,-0.215c-0.012,-0.087 -0.029,-0.151 -0.051,-0.194c-0.005,-0.01 -0.008,-0.018 -0.008,-0.024c0,-0.004 0.008,-0.013 0.024,-0.027c0.016,-0.013 0.035,-0.026 0.055,-0.037c0.021,-0.011 0.038,-0.017 0.053,-0.017c0.012,-0 0.02,0.003 0.024,0.01c0.004,0.006 0.007,0.02 0.009,0.041c0.002,0.021 0.004,0.054 0.005,0.1c0.02,-0.05 0.046,-0.093 0.078,-0.128c0.031,-0.035 0.065,-0.052 0.102,-0.052c0.034,0 0.061,0.013 0.082,0.039c0.036,0.045 0.054,0.114 0.054,0.207c0,0.011 -0.001,0.032 -0.002,0.063c-0.001,0.032 -0.008,0.072 -0.02,0.123c-0.012,0.05 -0.029,0.096 -0.049,0.138c-0.021,0.043 -0.046,0.077 -0.074,0.103c-0.028,0.026 -0.059,0.039 -0.093,0.039c-0.032,-0 -0.058,-0.016 -0.078,-0.048l-0.001,0.097c0,0.184 0.003,0.298 0.009,0.342l0.001,0.009c-0,0.004 -0.001,0.007 -0.002,0.009c-0.001,0.003 -0.005,0.004 -0.012,0.004Zm0.058,-0.491c0.02,0 0.039,-0.019 0.058,-0.058c0.019,-0.04 0.036,-0.088 0.05,-0.145c0.015,-0.057 0.026,-0.114 0.033,-0.171c0.006,-0.043 0.009,-0.082 0.009,-0.115c0,-0.01 -0,-0.028 -0.002,-0.052c-0.001,-0.024 -0.009,-0.036 -0.024,-0.036c-0.042,-0 -0.081,0.049 -0.118,0.146c-0.028,0.075 -0.046,0.143 -0.055,0.205c0.013,0.003 0.025,0.006 0.036,0.011c0.018,0.008 0.027,0.016 0.027,0.023c-0,0.004 -0.004,0.011 -0.011,0.022c-0.005,0.008 -0.01,0.021 -0.016,0.039c-0.01,0.031 -0.014,0.058 -0.014,0.083c-0,0.009 0.001,0.019 0.003,0.031c0.003,0.012 0.011,0.017 0.024,0.017Z" style="fill-rule:nonzero;"/></g><g transform="matrix(16,0,0,16,21.0339,25.5069)"><path d="M0.116,-0.765c-0.004,0 -0.01,-0.006 -0.019,-0.019c-0.008,-0.014 -0.016,-0.028 -0.024,-0.043c-0.007,-0.016 -0.011,-0.027 -0.011,-0.033c0,-0.004 0.003,-0.01 0.009,-0.017c0.001,-0 0.001,-0.001 0.001,-0.001c0.004,-0.005 0.012,-0.013 0.025,-0.026c0.037,-0.036 0.066,-0.054 0.087,-0.054c0.019,0 0.038,0.021 0.059,0.062c0.009,0.017 0.014,0.028 0.014,0.032c-0,0.003 -0.003,0.004 -0.008,0.004l-0.015,-0c-0.022,-0 -0.057,0.029 -0.106,0.087c-0.005,0.005 -0.009,0.008 -0.012,0.008Zm0.044,0.763c-0.044,-0 -0.079,-0.026 -0.107,-0.076c-0.029,-0.054 -0.043,-0.135 -0.043,-0.245c-0,-0.1 0.014,-0.226 0.044,-0.377c0.002,-0.009 0.007,-0.013 0.012,-0.013c0.01,-0 0.023,0.003 0.038,0.009c0.015,0.006 0.029,0.012 0.042,0.019c0.012,0.006 0.02,0.011 0.023,0.013c0.003,0.002 0.005,0.003 0.006,0.005c0.001,0.002 0.001,0.004 0.001,0.005l-0.001,0.006c-0.033,0.112 -0.05,0.217 -0.05,0.313c0,0.07 0.006,0.125 0.016,0.166c0.011,0.042 0.023,0.074 0.036,0.096c0.012,0.022 0.023,0.037 0.031,0.045c0.007,0.008 0.011,0.014 0.011,0.017c0,0.005 -0.004,0.009 -0.012,0.011c-0.008,0.002 -0.016,0.004 -0.026,0.005c-0.01,0 -0.017,0.001 -0.021,0.001Z" style="fill-rule:nonzero;"/></g><g transform="matrix(16,0,0,16,25.1042,25.5069)"><path d="M0.433,0.034c-0.04,0 -0.071,-0.023 -0.093,-0.071c-0.024,-0.054 -0.037,-0.127 -0.037,-0.219c0,-0.073 0.008,-0.154 0.024,-0.243c-0.038,0.072 -0.072,0.146 -0.101,0.22c-0.031,0.078 -0.051,0.167 -0.061,0.267c0,0.006 -0.004,0.01 -0.012,0.01c-0.011,-0 -0.027,-0.007 -0.049,-0.02c-0.046,-0.026 -0.072,-0.046 -0.078,-0.058c-0.007,-0.015 -0.011,-0.07 -0.011,-0.165c0,-0.12 0.004,-0.232 0.012,-0.336c-0.001,-0.034 -0.005,-0.063 -0.012,-0.089c-0.003,-0.015 -0.005,-0.026 -0.005,-0.033c0,-0.007 0.007,-0.011 0.02,-0.011c0.017,0 0.038,0.005 0.062,0.013c0.021,0.008 0.039,0.017 0.054,0.029c0.006,0.004 0.008,0.009 0.008,0.015l0,0.004c-0.002,0.019 -0.005,0.066 -0.008,0.141c-0.001,0.025 -0.002,0.05 -0.002,0.076c0,0.051 0.002,0.104 0.006,0.158c0.049,-0.122 0.094,-0.236 0.137,-0.343l0.039,-0.095c0.002,-0.005 0.003,-0.009 0.005,-0.012c0.002,-0.003 0.004,-0.004 0.008,-0.004c0.014,0 0.034,0.003 0.06,0.01c0.026,0.007 0.048,0.017 0.066,0.031c0.005,0.004 0.008,0.009 0.008,0.015l-0,0.004c-0.003,0.025 -0.007,0.051 -0.012,0.079c-0.013,0.059 -0.023,0.124 -0.031,0.197c-0.003,0.032 -0.005,0.064 -0.005,0.095c-0,0.039 0.004,0.085 0.012,0.138c0.008,0.052 0.033,0.101 0.075,0.147c0.006,0.006 0.009,0.01 0.009,0.012c-0,0.006 -0.005,0.011 -0.015,0.017c-0.01,0.006 -0.022,0.011 -0.035,0.015c-0.014,0.004 -0.027,0.006 -0.038,0.006Z" style="fill-rule:nonzero;"/></g><g transform="matrix(16,0,0,16,33.7214,25.5069)"><path d="M0.156,0.107c-0.008,-0 -0.019,-0.008 -0.032,-0.025c-0.013,-0.016 -0.025,-0.035 -0.037,-0.057c-0.012,-0.022 -0.02,-0.041 -0.024,-0.059c-0.003,-0.01 -0.004,-0.064 -0.004,-0.161c-0,-0.178 0.004,-0.351 0.013,-0.52c-0.037,0.003 -0.069,0.005 -0.096,0.005c-0.011,0 -0.02,-0.003 -0.028,-0.008c-0.008,-0.006 -0.011,-0.011 -0.011,-0.016c0,-0.039 0.004,-0.068 0.011,-0.087c0.012,-0.032 0.023,-0.049 0.034,-0.049c0.008,0 0.014,0.004 0.02,0.011c0.006,0.004 0.032,0.009 0.08,0.015l0.004,-0.048c0.001,-0.011 0.002,-0.024 0.002,-0.036c-0,-0.007 -0,-0.017 -0.001,-0.03c-0.001,-0.013 -0.002,-0.028 -0.003,-0.045c-0.002,-0.017 -0.002,-0.029 -0.002,-0.038c0.001,-0.006 0.008,-0.009 0.021,-0.009c0.019,0 0.045,0.006 0.078,0.019c0.024,0.009 0.044,0.02 0.057,0.033c0.005,0.005 0.007,0.009 0.007,0.013c0,0.003 -0.001,0.008 -0.002,0.016c-0.006,0.019 -0.015,0.065 -0.029,0.137c0.087,0.007 0.16,0.011 0.221,0.011l0.011,-0c0.007,-0 0.012,0.001 0.015,0.004c0.003,0.003 0.004,0.006 0.004,0.008c0,0.008 -0.005,0.015 -0.015,0.019c-0.009,0.005 -0.021,0.01 -0.034,0.014c-0.03,0.01 -0.048,0.02 -0.053,0.029c-0.005,0.01 -0.019,0.015 -0.041,0.015c-0.04,0 -0.081,0.002 -0.124,0.006c-0.013,0.092 -0.024,0.206 -0.032,0.344c-0.005,0.075 -0.007,0.156 -0.007,0.244c0,0.073 0.002,0.15 0.005,0.232c-0,0.001 -0.001,0.003 -0.001,0.005c-0.001,0.002 -0.002,0.003 -0.003,0.005c-0.002,0.002 -0.003,0.003 -0.004,0.003Z" style="fill-rule:nonzero;"/></g><g transform="matrix(16,0,0,16,38.2683,25.5069)"><path d="M0.24,-0.001c-0.072,-0 -0.128,-0.027 -0.169,-0.081c-0.041,-0.054 -0.061,-0.128 -0.061,-0.224c-0,-0.064 0.011,-0.124 0.034,-0.182c0.024,-0.058 0.05,-0.105 0.08,-0.142c0.029,-0.036 0.053,-0.054 0.072,-0.054c0.026,-0 0.055,0.006 0.088,0.019l0.005,0.002c0.011,-0.034 0.024,-0.05 0.039,-0.05c0.022,-0 0.042,0.005 0.061,0.016c0.028,0.016 0.042,0.028 0.042,0.035c-0,0.003 -0.004,0.007 -0.011,0.013c-0.002,0.001 -0.003,0.003 -0.004,0.005c-0.003,-0 -0.009,0.007 -0.018,0.021c-0.018,0.028 -0.027,0.077 -0.027,0.146c-0,0.069 -0.029,0.118 -0.085,0.146c-0.04,0.02 -0.082,0.031 -0.125,0.031l-0.031,-0c-0.001,0.017 -0.001,0.034 -0.001,0.05c-0,0.059 0.009,0.11 0.028,0.152c0.02,0.043 0.047,0.065 0.084,0.066c0.035,-0.001 0.065,-0.019 0.091,-0.053c0.026,-0.035 0.047,-0.08 0.062,-0.135c0.014,-0.056 0.022,-0.113 0.022,-0.174c-0,-0.007 0.001,-0.01 0.005,-0.01c0.006,-0 0.013,0.005 0.024,0.017c0.011,0.011 0.02,0.024 0.029,0.04c0.009,0.015 0.013,0.028 0.013,0.04c0,0.011 -0.003,0.028 -0.01,0.052c-0.007,0.024 -0.017,0.05 -0.03,0.079c-0.014,0.028 -0.031,0.056 -0.05,0.082c-0.02,0.027 -0.043,0.049 -0.069,0.066c-0.027,0.018 -0.056,0.027 -0.088,0.027Zm-0.102,-0.338c0.094,-0.03 0.141,-0.094 0.141,-0.19l-0.004,-0.045l-0.009,0c-0.009,0 -0.019,0.004 -0.03,0.011c-0.018,0.011 -0.035,0.032 -0.05,0.063c-0.019,0.04 -0.036,0.093 -0.048,0.161Z" style="fill-rule:nonzero;"/></g><path d="M21.891,11.194l0.005,-0.013c0.065,-0.07 0.201,-0.209 0.412,-0.42c0.69,-0.678 1.265,-0.974 1.671,-0.974c0.201,-0 0.412,0.073 0.622,0.249c0.216,0.181 0.448,0.492 0.68,0.946c0.193,0.379 0.262,0.622 0.262,0.705c0,0.115 -0.038,0.211 -0.107,0.292c-0.067,0.078 -0.194,0.17 -0.418,0.17l-0.242,-0.008c-0.08,0 -0.171,0.064 -0.291,0.149c-0.293,0.208 -0.656,0.575 -1.093,1.093c-0.18,0.229 -0.37,0.29 -0.499,0.29c-0.084,-0 -0.19,-0.023 -0.305,-0.108c-0.082,-0.061 -0.197,-0.187 -0.33,-0.39c-0.148,-0.225 -0.284,-0.471 -0.41,-0.735c-0.154,-0.326 -0.214,-0.56 -0.214,-0.691c-0,-0.135 0.057,-0.322 0.231,-0.534l0.013,-0.007c-0.05,0.059 -0.088,0.137 -0.088,0.244l0.097,-0.248l0.288,-0.136c-0.124,-0 -0.21,0.051 -0.272,0.113c-0.004,0.004 -0.008,0.008 -0.012,0.013Zm-0.013,0.014c0.005,-0.005 0.009,-0.01 0.013,-0.014l-0.004,0.01l-0.009,0.004Zm1.015,2.065c0.052,-0 0.115,-0.047 0.188,-0.141c0.781,-0.927 1.346,-1.391 1.695,-1.391l0.242,0.008c0.084,0 0.125,-0.021 0.125,-0.062c0,-0.063 -0.073,-0.237 -0.218,-0.524c-0.334,-0.651 -0.649,-0.976 -0.946,-0.976c-0.344,-0 -0.807,0.286 -1.39,0.859c-0.204,0.203 -0.336,0.338 -0.399,0.406c0,0.011 -0.005,0.016 -0.015,0.016c-0.094,0.114 -0.141,0.208 -0.141,0.281c-0,0.099 0.059,0.272 0.176,0.52c0.117,0.247 0.244,0.476 0.383,0.687c0.138,0.211 0.238,0.317 0.3,0.317Zm22.335,2.175c0.008,-0.007 0.016,-0.015 0.022,-0.024l-0.333,0.178c0.046,0 0.23,-0.082 0.23,-0.082c0,0 -0.095,0.121 -0.177,0.245c-0.263,0.405 -0.372,1.111 -0.372,2.109c-0,1.276 -0.531,2.17 -1.569,2.692c-0.699,0.358 -1.429,0.536 -2.19,0.536c-0,0 -0.102,0 -0.102,0c-0.004,0.139 -0.006,0.274 -0.006,0.405c-0,0.879 0.138,1.638 0.422,2.274c0.227,0.509 0.54,0.795 0.984,0.81c0.43,-0.014 0.8,-0.254 1.129,-0.689c0.392,-0.518 0.693,-1.193 0.912,-2.021c0.226,-0.853 0.339,-1.746 0.339,-2.679c-0,-0.194 0.063,-0.32 0.13,-0.398c0.091,-0.107 0.211,-0.166 0.363,-0.166c0.14,0 0.389,0.096 0.673,0.401c0.188,0.203 0.361,0.439 0.517,0.708c0.184,0.317 0.265,0.601 0.265,0.846c0,0.194 -0.056,0.509 -0.179,0.942c-0.115,0.401 -0.285,0.842 -0.511,1.322c-0.228,0.482 -0.507,0.945 -0.839,1.389c-0.343,0.46 -0.744,0.842 -1.204,1.148c-0.488,0.326 -1.031,0.489 -1.628,0.489c-1.276,0 -2.279,-0.484 -3.013,-1.446c-0.701,-0.918 -1.066,-2.192 -1.066,-3.829c-0,-1.067 0.194,-2.088 0.583,-3.062c0.387,-0.97 0.831,-1.758 1.327,-2.366c0.319,-0.391 0.606,-0.661 0.854,-0.817c0.224,-0.142 0.431,-0.201 0.612,-0.201c0.38,-0 0.801,0.074 1.26,0.226c0.096,-0.199 0.199,-0.348 0.302,-0.451c0.174,-0.172 0.363,-0.244 0.555,-0.244c0.414,-0 0.807,0.106 1.18,0.321c0.364,0.214 0.595,0.392 0.705,0.52c0.123,0.143 0.156,0.278 0.156,0.379c-0,0.105 -0.059,0.305 -0.304,0.515l-0.027,0.02Zm-4.89,5.637l0.016,0.017c0,0 -0.006,-0.009 -0.016,-0.026c0.004,-0.122 0.009,-0.247 0.016,-0.374l0.485,0c0.698,0 1.367,-0.164 2.007,-0.492c0.901,-0.453 1.352,-1.232 1.352,-2.336c-0,-1.104 0.146,-1.88 0.437,-2.328c0.152,-0.229 0.245,-0.344 0.282,-0.344c0.021,-0.031 0.047,-0.057 0.078,-0.078c0.109,-0.094 0.164,-0.164 0.164,-0.211c-0,-0.109 -0.221,-0.294 -0.664,-0.555c-0.307,-0.177 -0.633,-0.265 -0.977,-0.265c-0.239,-0 -0.45,0.268 -0.633,0.805l-0.078,-0.032c-0.52,-0.203 -0.989,-0.304 -1.406,-0.304c-0.297,-0 -0.682,0.29 -1.156,0.871c-0.474,0.58 -0.896,1.334 -1.266,2.261c-0.37,0.927 -0.554,1.899 -0.554,2.914c-0,1.532 0.328,2.727 0.984,3.586c0.656,0.86 1.555,1.289 2.695,1.289c0.516,0 0.985,-0.14 1.406,-0.421c0.422,-0.282 0.791,-0.633 1.106,-1.055c0.315,-0.422 0.581,-0.862 0.797,-1.32c0.216,-0.459 0.379,-0.879 0.488,-1.262c0.109,-0.383 0.164,-0.66 0.164,-0.832c0,-0.188 -0.07,-0.403 -0.211,-0.645c-0.14,-0.242 -0.295,-0.454 -0.465,-0.636c-0.169,-0.183 -0.295,-0.274 -0.379,-0.274c-0.062,0 -0.093,0.055 -0.093,0.164c-0,0.969 -0.117,1.896 -0.352,2.781c-0.234,0.886 -0.561,1.606 -0.98,2.161c-0.42,0.554 -0.905,0.837 -1.457,0.847c-0.589,-0.015 -1.035,-0.364 -1.34,-1.047c-0.305,-0.682 -0.457,-1.494 -0.457,-2.437c-0,-0.137 0.002,-0.278 0.007,-0.422Zm2.357,-4.433c-0.016,0.046 -0.028,0.075 -0.028,0.075l0.032,-0.035l0.03,0.346c0,1.547 -0.752,2.56 -2.258,3.039c0.204,-1.078 0.461,-1.935 0.774,-2.57c0.239,-0.49 0.505,-0.828 0.797,-1.016c0.172,-0.109 0.333,-0.164 0.484,-0.164l0.141,0l0.028,0.325Zm-0.388,0.146c-0.017,0.01 -0.033,0.02 -0.05,0.03c-0.243,0.157 -0.453,0.447 -0.653,0.855c-0.225,0.457 -0.419,1.034 -0.584,1.729c0.868,-0.48 1.305,-1.265 1.309,-2.357l-0.022,-0.257Zm-26.58,14.887c0.002,0.012 0.003,0.025 0.004,0.041l0.007,0.148c0,0.008 0.001,0.026 0.001,0.026c-0.001,0.124 -0.026,0.227 -0.065,0.311c-0.057,0.122 -0.213,0.29 -0.554,0.29c-0.778,-0 -1.348,-0.13 -1.716,-0.356c-0.612,-0.372 -0.911,-0.895 -0.911,-1.56c0,-0.062 0.033,-0.328 0.108,-0.805c0.402,-2.238 0.603,-4.568 0.603,-6.992c0,-1.383 -0.06,-2.513 -0.183,-3.39c-0.185,-1.326 -0.44,-2.315 -0.779,-2.964l-0.01,-0.019c-0.11,-0.243 -0.153,-0.431 -0.153,-0.557c0,-0.075 0.02,-0.183 0.106,-0.307c0.066,-0.096 0.204,-0.241 0.424,-0.425c0.276,-0.231 0.59,-0.445 0.942,-0.641c0.402,-0.223 0.748,-0.323 1.03,-0.323c0.398,-0 0.628,0.159 0.741,0.363c0.07,0.128 0.143,0.395 0.191,0.807c0.005,0.041 0.01,0.084 0.015,0.13c0.188,-0.289 0.392,-0.555 0.612,-0.798c0.591,-0.652 1.243,-0.963 1.941,-0.963c0.671,-0 1.209,0.259 1.616,0.774c0.623,0.769 0.956,1.953 0.956,3.563c-0,0.18 -0.011,0.523 -0.032,1.029c-0.022,0.517 -0.132,1.194 -0.335,2.03c-0.203,0.834 -0.476,1.602 -0.818,2.304c-0.356,0.727 -0.777,1.311 -1.261,1.756c-0.531,0.488 -1.122,0.726 -1.767,0.726c-0.311,0 -0.596,-0.071 -0.855,-0.217l-0.003,0.607c0,2.918 0.047,4.721 0.145,5.412Zm-0.607,0.416c0.109,-0 0.173,-0.02 0.191,-0.059c0.018,-0.039 0.028,-0.087 0.028,-0.144l-0.008,-0.157c-0.099,-0.698 -0.149,-2.521 -0.149,-5.468l0.008,-1.555c0.323,0.51 0.74,0.765 1.25,0.765c0.547,0 1.046,-0.207 1.496,-0.621c0.451,-0.414 0.841,-0.959 1.172,-1.636c0.331,-0.677 0.594,-1.418 0.789,-2.223c0.196,-0.805 0.304,-1.456 0.324,-1.953c0.021,-0.498 0.032,-0.835 0.032,-1.012c-0,-1.495 -0.289,-2.599 -0.868,-3.312c-0.328,-0.417 -0.763,-0.625 -1.304,-0.625c-0.594,-0 -1.142,0.277 -1.645,0.832c-0.502,0.554 -0.915,1.238 -1.238,2.05c-0.016,-0.734 -0.043,-1.269 -0.082,-1.605c-0.039,-0.336 -0.087,-0.556 -0.145,-0.66c-0.057,-0.104 -0.187,-0.156 -0.39,-0.156c-0.229,-0 -0.508,0.091 -0.836,0.273c-0.328,0.182 -0.621,0.382 -0.879,0.598c-0.258,0.216 -0.387,0.358 -0.387,0.425c0,0.089 0.039,0.219 0.117,0.391c0.355,0.677 0.628,1.708 0.821,3.094c0.125,0.89 0.187,2.039 0.187,3.445c0,2.448 -0.203,4.802 -0.609,7.063c-0.068,0.432 -0.102,0.677 -0.102,0.734c0,0.521 0.24,0.927 0.719,1.219c0.323,0.198 0.826,0.297 1.508,0.297Zm0.922,-7.852c-0.209,0 -0.334,-0.092 -0.375,-0.277c-0.042,-0.185 -0.063,-0.353 -0.063,-0.504c0,-0.391 0.078,-0.831 0.235,-1.32c0.088,-0.287 0.171,-0.493 0.25,-0.618c0.114,-0.177 0.171,-0.294 0.171,-0.351c0,-0.125 -0.143,-0.25 -0.429,-0.375c-0.177,-0.078 -0.367,-0.136 -0.571,-0.172c0.136,-0.995 0.428,-2.089 0.875,-3.281c0.589,-1.563 1.219,-2.344 1.891,-2.344c0.24,-0 0.37,0.194 0.391,0.582c0.021,0.388 0.031,0.665 0.031,0.832c-0,0.531 -0.047,1.146 -0.141,1.844c-0.119,0.906 -0.297,1.816 -0.531,2.73c-0.234,0.914 -0.501,1.685 -0.801,2.313c-0.299,0.627 -0.61,0.941 -0.933,0.941Zm0.007,-0.4c0.065,-0.004 0.121,-0.053 0.184,-0.117c0.131,-0.132 0.255,-0.333 0.381,-0.597c0.29,-0.607 0.548,-1.354 0.775,-2.239c0.23,-0.899 0.404,-1.793 0.522,-2.685c0.091,-0.677 0.137,-1.274 0.137,-1.79c-0,-0.162 -0.01,-0.433 -0.031,-0.811c-0.004,-0.071 -0.024,-0.155 -0.036,-0.201c-0.217,0.02 -0.414,0.18 -0.62,0.435c-0.295,0.366 -0.576,0.916 -0.851,1.647c-0.384,1.022 -0.65,1.968 -0.799,2.841c0.096,0.03 0.19,0.066 0.28,0.105c0.239,0.105 0.4,0.217 0.496,0.321c0.126,0.138 0.173,0.283 0.173,0.421c0,0.089 -0.055,0.288 -0.235,0.568c-0.065,0.107 -0.131,0.28 -0.205,0.522c-0.142,0.445 -0.216,0.844 -0.216,1.199c0,0.115 0.016,0.242 0.045,0.381Zm7.805,-8.528l0.394,-0.332l-0.014,0.089c-0.005,0.03 -0.013,0.057 -0.021,0.082c-0.513,1.739 -0.771,3.36 -0.771,4.863c-0,1.068 0.078,1.922 0.241,2.561c0.158,0.618 0.329,1.093 0.52,1.42c0.183,0.312 0.326,0.528 0.437,0.641c0.235,0.239 0.302,0.448 0.302,0.565c-0,0.224 -0.117,0.452 -0.482,0.557c-0.152,0.043 -0.321,0.072 -0.504,0.084c-0.167,0.012 -0.286,0.017 -0.36,0.017c-0.84,-0 -1.539,-0.453 -2.063,-1.414c-0.486,-0.907 -0.743,-2.276 -0.743,-4.111c0,-1.63 0.236,-3.666 0.711,-6.108l0.008,-0.033c0.108,-0.38 0.343,-0.509 0.587,-0.509c0.195,-0 0.445,0.053 0.746,0.173c0.256,0.102 0.491,0.209 0.706,0.322c0.218,0.115 0.353,0.189 0.407,0.223c0.136,0.086 0.208,0.183 0.244,0.262c0.039,0.087 0.055,0.17 0.055,0.248l-0.4,0.4Zm-0.258,10.147c0.068,-0 0.179,-0.005 0.332,-0.016c0.154,-0.01 0.295,-0.034 0.422,-0.07c0.128,-0.037 0.192,-0.094 0.192,-0.172c-0,-0.062 -0.063,-0.158 -0.188,-0.285c-0.125,-0.128 -0.29,-0.367 -0.496,-0.719c-0.206,-0.351 -0.393,-0.859 -0.562,-1.523c-0.17,-0.664 -0.254,-1.551 -0.254,-2.66c-0,-1.547 0.265,-3.217 0.797,-5.008l0.015,-0.094c0,-0.026 -0.006,-0.053 -0.019,-0.082c-0.013,-0.029 -0.045,-0.059 -0.094,-0.09c-0.05,-0.031 -0.176,-0.1 -0.379,-0.207c-0.203,-0.107 -0.426,-0.208 -0.668,-0.305c-0.242,-0.096 -0.441,-0.144 -0.598,-0.144c-0.093,-0 -0.161,0.073 -0.203,0.219c-0.468,2.411 -0.703,4.421 -0.703,6.031c0,1.75 0.232,3.057 0.695,3.922c0.438,0.802 1.008,1.203 1.711,1.203Zm4.377,-10.469l-0,0.061c-0,0.033 -0.003,0.063 -0.008,0.088c-0.04,0.32 -0.084,1.047 -0.133,2.18c-0.015,0.396 -0.023,0.796 -0.023,1.202c-0,0.221 0.002,0.443 0.007,0.665c0.528,-1.318 1.032,-2.574 1.511,-3.768c0,0 0.616,-1.519 0.616,-1.519c0.041,-0.108 0.079,-0.191 0.113,-0.248c0.096,-0.163 0.248,-0.264 0.478,-0.264c0.242,-0 0.595,0.056 1.058,0.177c0.263,0.069 0.503,0.157 0.72,0.264c-0.004,-0.027 -0.006,-0.053 -0.006,-0.079c0.011,-0.677 0.083,-1.182 0.204,-1.523c0.168,-0.452 0.346,-0.737 0.501,-0.873c0.141,-0.123 0.286,-0.169 0.421,-0.169c0.211,-0 0.399,0.073 0.558,0.231c0.084,0.018 0.341,0.074 0.676,0.127c0,0 0.032,-0.346 0.033,-0.354c0.019,-0.173 0.029,-0.354 0.029,-0.542c-0,-0.1 -0.005,-0.252 -0.015,-0.457c-0.011,-0.209 -0.027,-0.443 -0.05,-0.703c-0.025,-0.281 -0.037,-0.496 -0.037,-0.644l0.01,-0.087c0.049,-0.221 0.248,-0.454 0.726,-0.454c0.353,0 0.818,0.103 1.392,0.323c0.456,0.168 0.807,0.38 1.063,0.63c0.169,0.17 0.226,0.341 0.226,0.486c0,0.063 -0.013,0.175 -0.048,0.335l-0.004,0.018c-0.071,0.267 -0.192,0.845 -0.363,1.735c1.177,0.086 2.192,0.129 3.047,0.129l0.147,0c0.014,0 0.027,0.001 0.04,0.002l0,-0.002c0.232,0 0.395,0.076 0.506,0.18c0.152,0.144 0.199,0.295 0.199,0.423c-0,0.262 -0.13,0.501 -0.462,0.664c-0.175,0.086 -0.379,0.164 -0.619,0.235c-0.205,0.069 -0.368,0.137 -0.49,0.206c-0.055,0.031 -0.124,0.088 -0.124,0.088c-0.136,0.241 -0.45,0.434 -1.002,0.434c-0.529,-0 -1.071,0.022 -1.626,0.065c-0.196,1.404 -0.352,3.121 -0.467,5.153c-0.073,1.19 -0.109,2.487 -0.109,3.89c0,1.157 0.024,2.386 0.07,3.689l0.001,0.014c-0,0.054 -0.009,0.123 -0.037,0.205c-0.023,0.068 -0.056,0.135 -0.102,0.198c-0.121,0.166 -0.266,0.208 -0.386,0.208c-0.114,-0 -0.247,-0.034 -0.391,-0.129c-0.121,-0.08 -0.265,-0.216 -0.425,-0.415c-0.225,-0.281 -0.438,-0.605 -0.638,-0.974c-0.205,-0.38 -0.346,-0.724 -0.426,-1.032c-0.043,-0.168 -0.075,-1.063 -0.075,-2.686c-0,-2.691 0.065,-5.317 0.195,-7.878c-0.415,0.029 -0.789,0.044 -1.123,0.044c-0.101,-0 -0.196,-0.011 -0.286,-0.032c0.015,0.057 0.022,0.117 0.022,0.178l-0,0.061c-0,0.024 -0.002,0.045 -0.005,0.066c-0,0.004 -0.001,0.008 -0.002,0.013c-0.042,0.395 -0.105,0.814 -0.188,1.255l-0.002,0.01c-0.2,0.93 -0.362,1.966 -0.485,3.108c-0.056,0.506 -0.084,1.002 -0.084,1.487c0,0.608 0.063,1.321 0.187,2.14c0.116,0.765 0.487,1.476 1.102,2.14c0.205,0.208 0.25,0.389 0.25,0.47c0,0.185 -0.104,0.423 -0.435,0.618c-0.184,0.109 -0.402,0.202 -0.655,0.277c-0.261,0.078 -0.499,0.115 -0.716,0.115c-0.788,-0 -1.418,-0.436 -1.848,-1.367c-0.415,-0.905 -0.63,-2.132 -0.63,-3.682c-0,-0.473 0.021,-0.969 0.063,-1.49c-0.187,0.423 -0.365,0.849 -0.533,1.278c-0.476,1.204 -0.789,2.588 -0.942,4.149c-0.004,0.14 -0.054,0.25 -0.13,0.336c-0.091,0.104 -0.237,0.19 -0.464,0.19c-0.208,-0 -0.543,-0.108 -0.989,-0.366c-0.549,-0.315 -0.928,-0.574 -1.142,-0.769c-0.134,-0.123 -0.216,-0.234 -0.262,-0.327c-0.045,-0.095 -0.091,-0.264 -0.123,-0.511c-0.058,-0.448 -0.088,-1.218 -0.088,-2.31c0,-1.919 0.063,-3.714 0.187,-5.388c-0.015,-0.493 -0.073,-0.931 -0.175,-1.322c-0.068,-0.276 -0.098,-0.483 -0.098,-0.618l0.001,-0.018c0.013,-0.283 0.2,-0.554 0.728,-0.554c0.307,0 0.683,0.075 1.126,0.234c0.379,0.134 0.699,0.307 0.957,0.512c0.201,0.136 0.301,0.326 0.301,0.568Zm4.658,0.06c0.014,-0.102 0.025,-0.203 0.036,-0.302l-0,-0.063c-0,-0.093 -0.039,-0.174 -0.117,-0.242c-0.287,-0.219 -0.64,-0.383 -1.059,-0.492c-0.419,-0.109 -0.738,-0.164 -0.957,-0.164c-0.063,-0 -0.107,0.022 -0.133,0.066c-0.026,0.045 -0.055,0.108 -0.086,0.192l-0.617,1.523c-0.682,1.698 -1.414,3.524 -2.195,5.477c-0.063,-0.86 -0.094,-1.701 -0.094,-2.524c-0,-0.411 0.008,-0.817 0.023,-1.218c0.04,-0.901 0.076,-1.549 0.109,-1.944c0.011,-0.129 0.022,-0.231 0.032,-0.306l-0,-0.063c-0,-0.104 -0.044,-0.185 -0.133,-0.242c-0.234,-0.188 -0.521,-0.341 -0.859,-0.461c-0.391,-0.141 -0.722,-0.211 -0.992,-0.211c-0.214,0 -0.323,0.057 -0.329,0.172c0,0.114 0.029,0.289 0.086,0.523c0.11,0.417 0.172,0.894 0.188,1.43c-0.125,1.667 -0.188,3.458 -0.188,5.375c0,1.526 0.058,2.409 0.172,2.648c0.094,0.193 0.508,0.5 1.242,0.922c0.36,0.209 0.623,0.313 0.79,0.313c0.13,-0 0.195,-0.05 0.195,-0.149c0.156,-1.609 0.479,-3.033 0.969,-4.273c0.468,-1.193 1.01,-2.367 1.625,-3.523c-0.256,1.427 -0.383,2.721 -0.383,3.882c-0,1.479 0.198,2.651 0.594,3.516c0.348,0.755 0.843,1.133 1.484,1.133c0.182,-0 0.383,-0.033 0.601,-0.098c0.219,-0.065 0.408,-0.144 0.567,-0.238c0.159,-0.094 0.238,-0.185 0.238,-0.274c0,-0.036 -0.047,-0.101 -0.14,-0.195c-0.678,-0.729 -1.08,-1.514 -1.207,-2.355c-0.128,-0.842 -0.192,-1.575 -0.192,-2.2c0,-0.5 0.029,-1.01 0.086,-1.531c0.125,-1.156 0.289,-2.206 0.492,-3.148c0.063,-0.332 0.113,-0.65 0.152,-0.956Zm3.583,12.159c0.02,-0 0.041,-0.014 0.062,-0.043c0.021,-0.029 0.037,-0.059 0.047,-0.09c0.01,-0.031 0.016,-0.057 0.016,-0.078c-0.047,-1.307 -0.071,-2.542 -0.071,-3.703c0,-1.412 0.037,-2.716 0.11,-3.914c0.125,-2.198 0.297,-4.032 0.515,-5.5c0.677,-0.063 1.336,-0.094 1.977,-0.094c0.354,-0 0.573,-0.078 0.656,-0.234c0.083,-0.157 0.365,-0.316 0.844,-0.477c0.213,-0.062 0.4,-0.133 0.558,-0.211c0.159,-0.078 0.239,-0.18 0.239,-0.305c-0,-0.041 -0.025,-0.086 -0.074,-0.132c-0.05,-0.047 -0.127,-0.071 -0.231,-0.071l-0.187,0c-0.969,0 -2.144,-0.054 -3.524,-0.164c0.219,-1.156 0.37,-1.89 0.453,-2.203c0.026,-0.12 0.039,-0.203 0.039,-0.25c0,-0.062 -0.036,-0.13 -0.109,-0.203c-0.219,-0.214 -0.526,-0.393 -0.922,-0.539c-0.516,-0.198 -0.932,-0.297 -1.25,-0.297c-0.203,0 -0.315,0.047 -0.336,0.141c0,0.14 0.012,0.343 0.035,0.609c0.024,0.266 0.041,0.505 0.051,0.719c0.01,0.213 0.016,0.372 0.016,0.476c-0,0.203 -0.011,0.399 -0.032,0.586l-0.07,0.766c-0.755,-0.094 -1.18,-0.177 -1.273,-0.25c-0.089,-0.109 -0.196,-0.164 -0.321,-0.164c-0.172,-0 -0.354,0.26 -0.547,0.781c-0.109,0.307 -0.169,0.771 -0.179,1.391c-0,0.078 0.061,0.161 0.183,0.25c0.123,0.088 0.27,0.133 0.442,0.133c0.442,-0 0.958,-0.027 1.547,-0.079c-0.146,2.698 -0.219,5.469 -0.219,8.313c-0,1.562 0.021,2.424 0.062,2.586c0.073,0.281 0.204,0.595 0.391,0.941c0.188,0.347 0.387,0.651 0.598,0.914c0.211,0.263 0.379,0.395 0.504,0.395Z" style="fill:#fff;"/></g><defs><linearGradient id="_Linear2" x1="0" y1="0" x2="1" y2="0" gradientUnits="userSpaceOnUse" gradientTransform="matrix(73.1315,-166.514,166.514,73.1315,63.4343,183.257)"><stop offset="0" style="stop-color:#cf00ff;stop-opacity:1"/><stop offset="1" style="stop-color:#6900ff;stop-opacity:1"/></linearGradient><linearGradient id="_Linear4" x1="0" y1="0" x2="1" y2="0" gradientUnits="userSpaceOnUse" gradientTransform="matrix(90.9329,0,0,119.349,54.5336,131.258)"><stop offset="0" style="stop-color:#fff;stop-opacity:0.9"/><stop offset="1" style="stop-color:#6f00ff;stop-opacity:0.9"/></linearGradient></defs></svg>